{"title":"Battle.Of.The.Brave.2004.DVDRip.AC3.X264-BARC0DE","uid":5704727,"size":1559052631,"categoryP":"video","categoryS":"movies","magnet":"?xt=urn:btih:4320edcdfecc6f38919f8e0423136e223918dd7b&amp;dn=Battle.Of.The.Brave.2004.DVDRip.AC3.X264-BARC0DE&amp;tr=udp%3A%2F%2Ftracker.openbittorrent.com%3A80&amp;tr=udp%3A%2F%2Fopen.demonii.com%3A1337&amp;tr=udp%3A%2F%2Ftracker.coppersurfer.tk%3A6969&amp;tr=udp%3A%2F%2Fexodus.desync.com%3A6969","seeders":2,"leechers":2,"uploader":"TvTeam","files":4,"time":1279651396,"description":". \n  &lt;a href=&quot;\nhttp://www.torrentday.com/&quot; rel=&quot;nofollow&quot; target=&quot;_NEW&quot;&gt;\nhttp://www.torrentday.com/&lt;/a&gt;        :     The Hottest Private Tracker On The Net!!!\n\n\n               www . TorrentDay . Com \n(((((((((((((= Enjoy No RAR releases =))))))))))))))))))))\n\n\n...................................NFO:....................................\n\n.*******************************************************************************\n                Battle.Of.The.Brave.2004.DVDRip.AC3.X264-BARC0DE\n*******************************************************************************\n\n-------------------------------------------------------------------------------\n                              General Information\n-------------------------------------------------------------------------------\nType.................: Movie\nName.................: Battle of the Brave - Nouvelle-France (original title)\nMovie Information....: http://www.imdb.com/title/tt0386669/\nGenre................: Drama | History | Romance | War\n\n-------------------------------------------------------------------------------\n                                    PLOT\n-------------------------------------------------------------------------------\nIn the mid-18th Century, as England and France battle over control of Canada, an \nepic romance between a peasant woman and a trapper unfurls.\n\n-------------------------------------------------------------------------------\n                                    CAST\n-------------------------------------------------------------------------------\nNomie Godin-Vigneau\t... \tMarie-Loup Carignan\nDavid La Haye\t... \tFranois le Gardeur\nJuliette Gosselin\t... \tYoung France Carignan\nSbastien Huberdeau\t... \tXavier Maillard\nGrard Depardieu\t... \tFather Thomas Blondeau\nBianca Gervais\t... \tAcoona\nIrne Jacob\t... \tAnglique de Roquebrune\nPierre Lebeau\t... \tJoseph Carignan\nVincent Perez\t... \tIntendant Le Bigot\nIsabel Richer\t... \tFrance Carignan\nJohanne-Marie Tremblay\t... \tMadeleine Carignan (as Johanne Marie Tremblay)\nTim Roth\t... \tWilliam Pitt\nJason Isaacs\t... \tGnral James Wolfe\nColm Meaney\t... \tBenjamin Franklin\nBilly Merasty\t... \tOwashak\n-------------------------------------------------------------------------------\n                                    MEDiA iNFO\n-------------------------------------------------------------------------------\n\nGeneral\nComplete name                    : Battle.Of.The.Brave.2004.DVDRip.AC3.X264-BARC0DE.mkv\nFormat                           : Matroska\nFile size                        : 1.45 GiB\nDuration                         : 2h 17mn\nOverall bit rate                 : 1 513 Kbps\n\n\nVideo\nID                               : 1\nFormat                           : AVC\nFormat/Info                      : Advanced Video Codec\nFormat profile                   : &lt;a class=&quot;__cf_email__&quot; href=&quot;/cdn-cgi/l/email-protection&quot; data-cfemail=&quot;622a0b050a222e514c52&quot;&gt;[email&amp;#160;protected]&lt;/a&gt;&lt;script cf-hash='f9e31' type=&quot;text/javascript&quot;&gt;\n/* &lt;![CDATA[ */!function(){try{var t=&quot;currentScript&quot;in document?document.currentScript:function(){for(var t=document.getElementsByTagName(&quot;script&quot;),e=t.length;e--;)if(t[e].getAttribute(&quot;cf-hash&quot;))return t[e]}();if(t&amp;&amp;t.previousSibling){var e,r,n,i,c=t.previousSibling,a=c.getAttribute(&quot;data-cfemail&quot;);if(a){for(e=&quot;&quot;,r=parseInt(a.substr(0,2),16),n=2;a.length-n;n+=2)i=parseInt(a.substr(n,2),16)^r,e+=String.fromCharCode(i);e=document.createTextNode(e),c.parentNode.replaceChild(e,c)}}}catch(u){}}();/* ]]&gt; */&lt;/script&gt;\nFormat settings, CABAC           : Yes\nFormat settings, ReFrames        : 3 frames\nMuxing mode                      : Container profile=&lt;a class=&quot;__cf_email__&quot; href=&quot;/cdn-cgi/l/email-protection&quot; data-cfemail=&quot;d184bfbabfbea6bf91e2ffe1&quot;&gt;[email&amp;#160;protected]&lt;/a&gt;&lt;script cf-hash='f9e31' type=&quot;text/javascript&quot;&gt;\n/* &lt;![CDATA[ */!function(){try{var t=&quot;currentScript&quot;in document?document.currentScript:function(){for(var t=document.getElementsByTagName(&quot;script&quot;),e=t.length;e--;)if(t[e].getAttribute(&quot;cf-hash&quot;))return t[e]}();if(t&amp;&amp;t.previousSibling){var e,r,n,i,c=t.previousSibling,a=c.getAttribute(&quot;data-cfemail&quot;);if(a){for(e=&quot;&quot;,r=parseInt(a.substr(0,2),16),n=2;a.length-n;n+=2)i=parseInt(a.substr(n,2),16)^r,e+=String.fromCharCode(i);e=document.createTextNode(e),c.parentNode.replaceChild(e,c)}}}catch(u){}}();/* ]]&gt; */&lt;/script&gt;\nCodec ID                         : V_MPEG4/ISO/AVC\nDuration                         : 2h 17mn\nBit rate                         : 1 071 Kbps\nWidth                            : 720 pixels\nHeight                           : 400 pixels\nDisplay aspect ratio             : 16:9\nFrame rate                       : 25.000 fps\nColor space                      : YUV\nChroma subsampling               : 4:2:0\nBit depth                        : 8 bits\nScan type                        : Progressive\nBits/(Pixel*Frame)               : 0.149\nStream size                      : 1 017 MiB (68%)\nWriting library                  : x264 core 79\n\n\nAudio\nID                               : 2\nFormat                           : AC-3\nFormat/Info                      : Audio Coding 3\nMode extension                   : CM (complete main)\nCodec ID                         : A_AC3\nDuration                         : 2h 17mn\nBit rate mode                    : Constant\nBit rate                         : 448 Kbps\nChannel(s)                       : 6 channels\nChannel positions                : Front: L C R, Side: L R, LFE\nSampling rate                    : 48.0 KHz\nStream size                      : 440 MiB (30%)\nLanguage                         : English","torrent":{"xt":"urn:btih:4320edcdfecc6f38919f8e0423136e223918dd7b","amp;dn":"Battle.Of.The.Brave.2004.DVDRip.AC3.X264-BARC0DE","amp;tr":["udp%3A%2F%2Ftracker.openbittorrent.com%3A80","udp%3A%2F%2Fopen.demonii.com%3A1337","udp%3A%2F%2Ftracker.coppersurfer.tk%3A6969","udp%3A%2F%2Fexodus.desync.com%3A6969"],"infoHash":"4320edcdfecc6f38919f8e0423136e223918dd7b","infoHashBuffer":{"type":"Buffer","data":[67,32,237,205,254,204,111,56,145,159,142,4,35,19,110,34,57,24,221,123]},"announce":[],"urlList":[]}}